<?xml version="1.0" encoding="UTF-8"?>
<svg version="1.1" xmlns="http://www.w3.org/2000/svg" width="512" height="512">
    <path d="M0 0 C1.3958431 -0.00461769 2.79168133 -0.0109764 4.18750954 -0.01890898 C7.99528633 -0.03550658 11.80265877 -0.02740003 15.61043644 -0.0149641 C19.72776501 -0.0058764 23.84502631 -0.0199017 27.96234131 -0.03088379 C36.01714488 -0.04863406 44.07179904 -0.04484464 52.12660837 -0.03323323 C58.67517729 -0.0241854 65.22370445 -0.02298073 71.77227783 -0.02732849 C73.17238647 -0.02824789 73.17238647 -0.02824789 74.60078013 -0.02918586 C76.49720622 -0.03046481 78.3936323 -0.03176167 80.29005837 -0.03307623 C98.05664433 -0.04447179 115.82314762 -0.03138439 133.58972001 -0.00987476 C148.82141072 0.00799529 164.05297946 0.00489089 179.28466797 -0.0135498 C196.98936405 -0.0349746 214.69398775 -0.04337325 232.39869499 -0.03110075 C234.2879931 -0.02982661 236.17729122 -0.02856912 238.06658936 -0.02732849 C238.99606593 -0.02671139 239.9255425 -0.02609429 240.88318503 -0.02545848 C247.42094073 -0.02201042 253.95865036 -0.02782221 260.49639893 -0.0372467 C268.46797544 -0.04848596 276.43939448 -0.04538621 284.41095304 -0.02412373 C288.47516511 -0.01363917 292.53911499 -0.00944692 296.60332489 -0.02272034 C300.32916259 -0.03470427 304.0544969 -0.02798403 307.78028941 -0.00681013 C309.75496347 -0.00027757 311.72967291 -0.01322632 313.70430946 -0.02703905 C325.71953106 0.07805954 335.14451836 3.13112514 343.91943359 11.50793457 C352.08613481 20.06275624 355.39519246 29.10999362 355.20370412 40.91777074 C355.1453408 43.08815519 355.06719056 45.25736144 354.98925781 47.42712402 C354.94879224 49.00561045 354.91062431 50.58415718 354.8745575 52.16275024 C354.79542446 55.54591118 354.70613127 58.92859899 354.61059189 62.31133461 C354.46477128 67.69258444 354.37943173 73.07376575 354.30862427 78.45646667 C354.29642849 79.37007613 354.28423271 80.28368559 354.27166736 81.22498018 C354.24703171 83.09277115 354.22262068 84.96056509 354.19842935 86.82836187 C354.03591881 99.34005767 353.84360852 111.84660392 353.44873047 124.35339355 C353.10381415 135.52597059 352.89868338 146.69301915 352.91162109 157.87121582 C352.91241511 158.76535265 352.91320913 159.65948949 352.91402721 160.58072138 C352.80637532 188.97084236 352.80637532 188.97084236 366.75247192 212.84587097 C371.75962226 217.50332051 377.12673948 221.50235431 383.08572388 224.85502625 C385.91943359 226.50793457 385.91943359 226.50793457 386.91943359 228.50793457 C387.17834469 232.50195076 387.19061073 236.49789673 387.21459961 240.49963379 C387.2316294 242.47269108 387.27548433 244.4454583 387.31982422 246.41809082 C387.38596043 256.41992054 385.64708569 264.06567527 379.98193359 272.38293457 C379.28777344 273.43094238 379.28777344 273.43094238 378.57958984 274.50012207 C376.91943359 276.50793457 376.91943359 276.50793457 374.35562611 278.16440201 C371.62538137 280.79080259 371.32452397 282.14426082 371.24785393 285.86628604 C371.25852719 286.57446011 371.26920045 287.28263418 371.28019714 288.01226807 C371.27184147 288.77114295 371.26348579 289.53001784 371.25487691 290.31188893 C371.23291711 292.85654466 371.24656219 295.3997613 371.26000977 297.94445801 C371.25155858 299.7676961 371.2409154 301.59092517 371.22824097 303.41413879 C371.20004201 308.36634873 371.20257554 313.31812631 371.21053481 318.27039242 C371.21365513 323.44479227 371.18863945 328.61905326 371.1665802 333.793396 C371.1290925 343.59288566 371.11698941 353.39223654 371.1139558 363.19179082 C371.1092701 374.34772385 371.07636246 385.50351741 371.04105794 396.65938902 C370.96906429 419.6088873 370.93259722 442.5583325 370.91943359 465.50793457 C371.85658203 465.64586426 372.79373047 465.78379395 373.75927734 465.92590332 C380.80318403 467.22323595 386.43169822 472.2940826 390.41943359 478.07043457 C394.63224902 484.74480785 395.28320911 490.92171252 395.29443359 498.63293457 C395.31892578 499.52625488 395.34341797 500.4195752 395.36865234 501.33996582 C395.37251953 502.20234863 395.37638672 503.06473145 395.38037109 503.95324707 C395.38858887 504.73200195 395.39680664 505.51075684 395.40527344 506.31311035 C394.70179174 509.4911508 393.49419749 510.52560994 390.91943359 512.50793457 C388.16797169 512.90000718 385.8170612 513.04583945 383.0670166 513.01129913 C381.86652255 513.02001978 381.86652255 513.02001978 380.64177608 513.0289166 C377.94301128 513.04358792 375.24514584 513.02959844 372.54638672 513.01586914 C370.59887474 513.02047524 368.65136624 513.02682619 366.70386505 513.03477812 C361.33898809 513.05153452 355.97439436 513.04319645 350.60951614 513.03083324 C344.82893162 513.02181083 339.04839699 513.03573849 333.26782227 513.04675293 C321.93844843 513.06457283 310.60918037 513.06068272 299.27980232 513.04910237 C290.07511652 513.04008195 280.87046044 513.03883801 271.66577148 513.04319763 C270.35749783 513.04381056 269.04922418 513.0444235 267.70130587 513.045055 C265.04387092 513.04633386 262.38643598 513.04763071 259.72900105 513.04894537 C235.50070711 513.06043784 211.27246673 513.04851957 187.04418194 513.02757498 C164.9166307 513.00859189 142.78917153 513.01029038 120.66162109 513.02941895 C95.81328651 513.05082763 70.9650036 513.0592626 46.11666107 513.04696989 C43.46880596 513.04569565 40.82095083 513.04443816 38.1730957 513.04319763 C36.87017846 513.04258053 35.56726121 513.04196343 34.22486162 513.04132763 C25.02741799 513.03786874 15.83000694 513.04371466 6.63256836 513.05311584 C-4.57058116 513.06431506 -15.77361853 513.06133959 -26.97675514 513.03999287 C-32.69669394 513.02945447 -38.4164455 513.02540805 -44.13638306 513.03858948 C-49.36709308 513.0504615 -54.59744137 513.04403688 -59.82811832 513.02267927 C-61.7257657 513.01819111 -63.6234433 513.02052869 -65.52107143 513.03018242 C-68.09053871 513.0422567 -70.65874902 513.02996381 -73.22814941 513.01129913 C-74.34654882 513.02534613 -74.34654882 513.02534613 -75.48754215 513.0396769 C-78.94726736 512.98906469 -80.7629746 512.75303189 -83.53899384 510.61067533 C-85.30633376 508.19998266 -85.59423928 507.01826368 -85.61181641 504.05871582 C-85.61697266 503.20986816 -85.62212891 502.36102051 -85.62744141 501.4864502 C-85.61197266 500.60666504 -85.59650391 499.72687988 -85.58056641 498.82043457 C-85.59603516 497.95998535 -85.61150391 497.09953613 -85.62744141 496.2130127 C-85.57403739 487.35462086 -82.21202529 478.99551354 -76.08056641 472.50793457 C-71.19102685 468.49670119 -67.35404415 466.44796249 -61.08056641 465.50793457 C-61.07101601 441.47317466 -61.09557181 417.43865967 -61.1608448 393.40398121 C-61.19035446 382.24449075 -61.20865997 371.085191 -61.20068359 359.92565918 C-61.19376051 350.20014148 -61.20776331 340.47491884 -61.24700248 330.74947375 C-61.26705029 325.5987801 -61.27654564 320.44854999 -61.26099014 315.29783058 C-61.24668222 310.45080005 -61.26033004 305.60465619 -61.29551888 300.75774002 C-61.30349444 298.97798049 -61.30121324 297.19814121 -61.28795815 295.41841316 C-61.2713911 292.9887281 -61.29162292 290.56202253 -61.32107544 288.13252258 C-61.30748934 287.42726136 -61.29390324 286.72200013 -61.27990544 285.99536735 C-61.34499542 283.2348571 -61.54225767 281.12039754 -63.40385222 279.0023607 C-64.90167711 277.75999043 -66.48927316 276.62809041 -68.08056641 275.50793457 C-69.87353516 273.36730957 -69.87353516 273.36730957 -71.26806641 271.25793457 C-71.73599609 270.57215332 -72.20392578 269.88637207 -72.68603516 269.17980957 C-77.16262775 260.60280864 -77.65692656 252.54207541 -77.70556641 242.94543457 C-77.75068359 241.66990723 -77.79580078 240.39437988 -77.84228516 239.0802002 C-77.85130859 237.83818848 -77.86033203 236.59617676 -77.86962891 235.31652832 C-77.89597412 233.64288208 -77.89597412 233.64288208 -77.92285156 231.9354248 C-76.15212475 224.72984983 -69.85974322 220.24188183 -64.2321167 215.81440735 C-53.95381588 207.50710514 -45.27037351 199.48695394 -43.69215131 185.82038444 C-43.02905516 177.59598474 -43.27391719 169.35337929 -43.57690907 161.11842704 C-43.71596969 156.59326455 -43.71163769 152.06805413 -43.7230835 147.54109192 C-43.76497445 138.99535234 -43.92499694 130.45645971 -44.13289428 121.91330987 C-44.43262044 109.37391589 -44.55089325 96.83247364 -44.6699028 84.29027271 C-44.687812 82.43035638 -44.70578253 80.57044064 -44.72381592 78.71052551 C-44.73241221 77.80194709 -44.74100851 76.89336867 -44.74986529 75.95725757 C-44.80459595 70.59532983 -44.89344091 65.23536255 -45.01408148 59.87451971 C-45.08718649 56.53962127 -45.14484004 53.2045483 -45.20035744 49.8693161 C-45.22996185 48.33376029 -45.26680814 46.79832274 -45.31176567 45.26313972 C-45.66729224 33.01543186 -44.14704442 23.18038406 -36.05322266 13.57434082 C-25.64865413 2.67529775 -14.76638771 -0.10329196 0 0 Z M-22.08056641 23.50793457 C-58.85004435 66.25011959 -29.08056641 136.12629847 -29.08056641 192.50793457 C92.35943359 192.50793457 213.79943359 192.50793457 338.91943359 192.50793457 C354.31691294 100.73618669 354.31691294 100.73618669 331.91943359 23.50793457 C322.44524022 16.12127533 313.5455645 16.35953635 301.98977661 16.3742218 C300.68340897 16.37195625 299.37704134 16.36969069 298.0310868 16.36735648 C294.41576779 16.36125354 290.80047194 16.36137029 287.18514895 16.36255085 C283.28185595 16.36275524 279.37857032 16.35723254 275.47528076 16.35249329 C267.83239941 16.34419471 260.18952577 16.34143881 252.54664029 16.34088091 C246.33359155 16.34040542 240.12054535 16.33834906 233.90749741 16.33518028 C216.28643503 16.32637629 198.66537875 16.32176057 181.04431416 16.32251076 C180.09479791 16.32255071 179.14528166 16.32259067 178.16699219 16.32263184 C176.74097605 16.32269316 176.74097605 16.32269316 175.28615151 16.32275572 C159.87646706 16.32316224 144.46680703 16.31359055 129.05712964 16.29949347 C113.22877913 16.28512778 97.40044054 16.27822337 81.57208335 16.27908725 C72.68795927 16.27941912 63.8038608 16.27667605 54.91974258 16.26590919 C47.35649049 16.25680172 39.79327563 16.25463103 32.23002042 16.26141862 C28.37272318 16.26468241 24.51549737 16.26474555 20.65820694 16.25606537 C16.47310325 16.24674448 12.28816479 16.25297997 8.10305786 16.26069641 C6.2818883 16.25298107 6.2818883 16.25298107 4.42392743 16.24510986 C-5.27277354 16.28463266 -14.44372814 16.93825274 -22.08056641 23.50793457 Z M-48.08056641 223.50793457 C-48.08056641 223.83793457 -48.08056641 224.16793457 -48.08056641 224.50793457 C85.89943359 224.50793457 219.87943359 224.50793457 357.91943359 224.50793457 C355.93943359 222.19793457 353.95943359 219.88793457 351.91943359 217.50793457 C350.9203494 216.21561535 350.9203494 216.21561535 349.90108168 214.89718866 C345.69065047 209.91323752 342.53858499 207.92699636 335.98177147 207.35860443 C333.19953193 207.30126846 330.44377204 207.29200358 327.66366577 207.32470703 C326.11562331 207.31002491 324.56761376 207.29144827 323.01965964 207.26933336 C318.7814634 207.22024936 314.54494521 207.22706192 310.30656457 207.24345827 C305.72949847 207.25148414 301.15287479 207.20784566 296.57598877 207.1711731 C287.61443407 207.10806094 278.65346181 207.09438559 269.69171111 207.09973675 C262.40412947 207.10366302 255.11672919 207.09223004 247.82918167 207.06996155 C245.72822147 207.06366377 243.62726126 207.05737097 241.52630103 207.05108309 C240.48050236 207.0479525 239.4347037 207.04482192 238.35721417 207.04159647 C218.58464048 206.98490764 198.81240078 206.98803323 179.0397795 207.00850445 C160.96955197 207.02522169 142.90060165 206.96279271 124.83067255 206.86342305 C106.26071153 206.76209944 87.69136162 206.71672134 69.12111914 206.73057413 C58.70159531 206.73729816 48.28325118 206.72173229 37.86396408 206.64689636 C28.99089084 206.58370736 20.11964348 206.57322144 11.24649398 206.62979513 C6.72295538 206.65718773 2.20281558 206.66097538 -2.32045364 206.59872818 C-29.19652364 205.95214984 -29.19652364 205.95214984 -48.08056641 223.50793457 Z M-61.08056641 240.50793457 C-61.08056641 250.0347248 -60.55719062 258.07600828 -54.08056641 265.50793457 C-46.83621132 271.21003437 -40.18215307 272.30692882 -31.08056641 271.50793457 C-24.35012941 269.72901435 -20.05422914 265.01587264 -16.08056641 259.50793457 C-12.87864947 253.39518406 -13.08056641 247.34877719 -13.08056641 240.50793457 C-28.92056641 240.50793457 -44.76056641 240.50793457 -61.08056641 240.50793457 Z M2.91943359 240.50793457 C2.91943359 250.0347248 3.44280938 258.07600828 9.91943359 265.50793457 C17.16378868 271.21003437 23.81784693 272.30692882 32.91943359 271.50793457 C39.64987059 269.72901435 43.94577086 265.01587264 47.91943359 259.50793457 C51.12135053 253.39518406 50.91943359 247.34877719 50.91943359 240.50793457 C35.07943359 240.50793457 19.23943359 240.50793457 2.91943359 240.50793457 Z M66.91943359 240.50793457 C66.91943359 250.0347248 67.44280938 258.07600828 73.91943359 265.50793457 C81.16378868 271.21003437 87.81784693 272.30692882 96.91943359 271.50793457 C103.64987059 269.72901435 107.94577086 265.01587264 111.91943359 259.50793457 C115.12135053 253.39518406 114.91943359 247.34877719 114.91943359 240.50793457 C99.07943359 240.50793457 83.23943359 240.50793457 66.91943359 240.50793457 Z M130.91943359 240.50793457 C130.91943359 250.0347248 131.44280938 258.07600828 137.91943359 265.50793457 C145.16378868 271.21003437 151.81784693 272.30692882 160.91943359 271.50793457 C167.64987059 269.72901435 171.94577086 265.01587264 175.91943359 259.50793457 C179.12135053 253.39518406 178.91943359 247.34877719 178.91943359 240.50793457 C163.07943359 240.50793457 147.23943359 240.50793457 130.91943359 240.50793457 Z M194.91943359 240.50793457 C194.91943359 250.0347248 195.44280938 258.07600828 201.91943359 265.50793457 C209.16378868 271.21003437 215.81784693 272.30692882 224.91943359 271.50793457 C231.64987059 269.72901435 235.94577086 265.01587264 239.91943359 259.50793457 C243.12135053 253.39518406 242.91943359 247.34877719 242.91943359 240.50793457 C227.07943359 240.50793457 211.23943359 240.50793457 194.91943359 240.50793457 Z M258.91943359 240.50793457 C258.91943359 250.0347248 259.44280938 258.07600828 265.91943359 265.50793457 C273.16378868 271.21003437 279.81784693 272.30692882 288.91943359 271.50793457 C295.64987059 269.72901435 299.94577086 265.01587264 303.91943359 259.50793457 C307.12135053 253.39518406 306.91943359 247.34877719 306.91943359 240.50793457 C291.07943359 240.50793457 275.23943359 240.50793457 258.91943359 240.50793457 Z M322.91943359 240.50793457 C322.91943359 250.0347248 323.44280938 258.07600828 329.91943359 265.50793457 C337.16378868 271.21003437 343.81784693 272.30692882 352.91943359 271.50793457 C359.64987059 269.72901435 363.94577086 265.01587264 367.91943359 259.50793457 C371.12135053 253.39518406 370.91943359 247.34877719 370.91943359 240.50793457 C355.07943359 240.50793457 339.23943359 240.50793457 322.91943359 240.50793457 Z M-6.08056641 273.50793457 C-7.13244141 274.83824707 -7.13244141 274.83824707 -8.20556641 276.19543457 C-13.30456986 282.51700611 -20.35269679 285.59981862 -28.08056641 287.50793457 C-36.49556641 288.00293457 -36.49556641 288.00293457 -45.08056641 288.50793457 C-45.08056641 346.58793457 -45.08056641 404.66793457 -45.08056641 464.50793457 C-34.52056641 464.50793457 -23.96056641 464.50793457 -13.08056641 464.50793457 C-13.0712207 461.32942871 -13.061875 458.15092285 -13.05224609 454.87609863 C-13.01839153 444.34277507 -12.96279535 433.80964568 -12.89666367 423.27647781 C-12.85725194 416.89382184 -12.82503238 410.51130253 -12.80957031 404.12854004 C-12.79436246 397.96215751 -12.75984304 391.79615088 -12.71225739 385.62993622 C-12.69748623 383.28421049 -12.68952786 380.93843108 -12.68868256 378.592659 C-12.67169452 355.07612083 -12.67169452 355.07612083 -8.08056641 345.50793457 C-7.57654297 344.3967627 -7.07251953 343.28559082 -6.55322266 342.14074707 C1.51398221 327.79408357 12.63987957 319.78763135 28.09130859 314.40246582 C42.7815044 310.9697568 58.81029398 312.65316902 71.88037109 320.22277832 C76.34590661 323.21507998 80.31699687 326.5052271 83.91943359 330.50793457 C84.38736328 330.97199707 84.85529297 331.43605957 85.33740234 331.91418457 C114.55951441 362.56359774 98.79144762 450.81343522 98.91943359 464.50793457 C183.39943359 464.50793457 267.87943359 464.50793457 354.91943359 464.50793457 C354.91943359 406.42793457 354.91943359 348.34793457 354.91943359 288.50793457 C349.30943359 288.17793457 343.69943359 287.84793457 337.91943359 287.50793457 C329.08136081 285.11428986 321.1384941 281.33652533 315.91943359 273.50793457 C315.25943359 273.50793457 314.59943359 273.50793457 313.91943359 273.50793457 C313.21818359 274.39480957 312.51693359 275.28168457 311.79443359 276.19543457 C308.72466091 280.00123462 305.23827855 282.27732234 300.91943359 284.50793457 C300.29810547 284.8302002 299.67677734 285.15246582 299.03662109 285.48449707 C289.90342203 289.31685903 277.16458488 288.99109762 267.85693359 285.94543457 C261.55050404 283.22043414 255.75048278 279.25450835 251.91943359 273.50793457 C251.25943359 273.50793457 250.59943359 273.50793457 249.91943359 273.50793457 C249.21818359 274.39480957 248.51693359 275.28168457 247.79443359 276.19543457 C244.72466091 280.00123462 241.23827855 282.27732234 236.91943359 284.50793457 C236.29810547 284.8302002 235.67677734 285.15246582 235.03662109 285.48449707 C225.90342203 289.31685903 213.16458488 288.99109762 203.85693359 285.94543457 C197.55050404 283.22043414 191.75048278 279.25450835 187.91943359 273.50793457 C187.25943359 273.50793457 186.59943359 273.50793457 185.91943359 273.50793457 C185.21818359 274.39480957 184.51693359 275.28168457 183.79443359 276.19543457 C180.72466091 280.00123462 177.23827855 282.27732234 172.91943359 284.50793457 C172.29810547 284.8302002 171.67677734 285.15246582 171.03662109 285.48449707 C161.90342203 289.31685903 149.16458488 288.99109762 139.85693359 285.94543457 C133.55050404 283.22043414 127.75048278 279.25450835 123.91943359 273.50793457 C123.25943359 273.50793457 122.59943359 273.50793457 121.91943359 273.50793457 C121.21818359 274.39480957 120.51693359 275.28168457 119.79443359 276.19543457 C116.72466091 280.00123462 113.23827855 282.27732234 108.91943359 284.50793457 C108.29810547 284.8302002 107.67677734 285.15246582 107.03662109 285.48449707 C97.90342203 289.31685903 85.16458488 288.99109762 75.85693359 285.94543457 C69.55050404 283.22043414 63.75048278 279.25450835 59.91943359 273.50793457 C59.25943359 273.50793457 58.59943359 273.50793457 57.91943359 273.50793457 C56.86755859 274.83824707 56.86755859 274.83824707 55.79443359 276.19543457 C52.72466091 280.00123462 49.23827855 282.27732234 44.91943359 284.50793457 C44.29810547 284.8302002 43.67677734 285.15246582 43.03662109 285.48449707 C33.90342203 289.31685903 21.16458488 288.99109762 11.85693359 285.94543457 C5.55050404 283.22043414 -0.24951722 279.25450835 -4.08056641 273.50793457 C-4.74056641 273.50793457 -5.40056641 273.50793457 -6.08056641 273.50793457 Z M10.45458984 345.38684082 C1.0210355 358.42098843 2.64519499 375.40886722 2.72412109 390.67980957 C2.72785754 392.81500109 2.73070152 394.95019433 2.73269653 397.08538818 C2.74028326 402.6682622 2.75988845 408.2510299 2.78210449 413.8338623 C2.80629505 420.5521322 2.81536755 427.27043791 2.82701111 433.98873901 C2.84631624 444.16187783 2.8846734 454.33478401 2.91943359 464.50793457 C29.31943359 464.50793457 55.71943359 464.50793457 82.91943359 464.50793457 C82.91943359 446.02793457 82.91943359 427.54793457 82.91943359 408.50793457 C78.95943359 408.17793457 74.99943359 407.84793457 70.91943359 407.50793457 C67.91943359 404.50793457 67.91943359 404.50793457 67.52099609 402.57043457 C67.52873047 401.88980957 67.53646484 401.20918457 67.54443359 400.50793457 C67.53283203 399.48699707 67.53283203 399.48699707 67.52099609 398.44543457 C68.05679443 395.83998384 68.73148921 395.02619367 70.91943359 393.50793457 C73.83740234 392.99621582 73.83740234 392.99621582 77.10693359 392.82043457 C78.73695313 392.72182129 78.73695313 392.72182129 80.39990234 392.62121582 C81.64707031 392.5651416 81.64707031 392.5651416 82.91943359 392.50793457 C84.13939541 364.66677305 84.13939541 364.66677305 71.66943359 340.63293457 C61.97657744 331.86218641 51.87323194 328.87078888 38.93505859 329.19543457 C27.03195973 329.86855986 17.86894196 336.45246208 10.45458984 345.38684082 Z M-65.08056641 486.25793457 C-67.60827517 489.88200172 -67.60827517 489.88200172 -68.08056641 496.50793457 C79.09943359 496.50793457 226.27943359 496.50793457 377.91943359 496.50793457 C376.83936811 488.80100174 376.83936811 488.80100174 371.91943359 483.50793457 C363.5350306 479.70819952 355.11509266 480.08748196 346.10473633 480.12698364 C344.38746309 480.12352433 342.67019208 480.11875792 340.95292568 480.11280191 C336.24751989 480.10029992 331.54229707 480.10645868 326.8368907 480.11576056 C321.75706218 480.12255397 316.67726492 480.11206837 311.59744263 480.1038208 C301.65140622 480.09048442 291.70543776 480.0933608 281.7593987 480.10205872 C273.67568355 480.10883522 265.59198744 480.10975213 257.50827026 480.10648727 C256.3575379 480.10602758 255.20680554 480.10556788 254.0212025 480.10509425 C251.68347589 480.10413507 249.34574927 480.10316243 247.00802267 480.10217647 C225.08969312 480.09362286 203.17140123 480.10345628 181.25307786 480.11957757 C162.44815936 480.13298072 143.64329641 480.13065262 124.83837891 480.11682129 C102.99821209 480.10076499 81.15807827 480.09444683 59.31790638 480.10365808 C56.98880323 480.10461372 54.65970008 480.10555683 52.33059692 480.10648727 C51.18464835 480.1069501 50.03869978 480.10741293 48.85802549 480.10788978 C40.78448249 480.11047951 32.71096042 480.10610901 24.63742065 480.09904861 C14.79781845 480.09063288 4.95828805 480.09291534 -4.88130593 480.10889085 C-9.90113415 480.11677252 -14.92084269 480.11986684 -19.94067001 480.10994339 C-24.53731613 480.10099396 -29.13373179 480.10593352 -33.73035705 480.12187605 C-35.39174226 480.12522278 -37.053147 480.12353219 -38.71451962 480.11624868 C-53.03855156 479.60607429 -53.03855156 479.60607429 -65.08056641 486.25793457 Z "
          fill="#000000" transform="translate(101.08056640625,-0.5079345703125)"/>
    <path d="M0 0 C0.90354721 -0.00686325 1.80709442 -0.0137265 2.73802185 -0.02079773 C5.70319661 -0.03899014 8.66783844 -0.03523907 11.63305664 -0.02954102 C13.70756704 -0.03410637 15.78207593 -0.039413 17.85658264 -0.04542542 C22.19644327 -0.05434164 26.53611972 -0.05195022 30.87597656 -0.04199219 C36.42182237 -0.03050337 41.96703135 -0.05072061 47.51279354 -0.07990932 C51.79464213 -0.09830483 56.07633903 -0.09797218 60.35821724 -0.0922718 C62.40223649 -0.09211901 64.44626629 -0.09812879 66.49024773 -0.11056328 C69.3545755 -0.12553516 72.2177385 -0.11475085 75.08203125 -0.09765625 C75.91607483 -0.10732422 76.75011841 -0.11699219 77.60943604 -0.12695312 C85.2533363 -0.03200901 92.10929627 2.5072622 97.85571289 7.65405273 C98.45899414 8.17483398 99.06227539 8.69561523 99.68383789 9.23217773 C105.78724212 16.12952073 108.53209438 24.07740599 111.41821289 32.71655273 C111.82491211 33.89540039 112.23161133 35.07424805 112.65063477 36.28881836 C115.60571289 44.97525809 115.60571289 44.97525809 115.60571289 48.40405273 C116.33274414 48.35764648 117.05977539 48.31124023 117.80883789 48.26342773 C132.24853827 47.74507952 142.905491 53.02094205 153.35571289 62.71655273 C163.50366675 73.43891907 166.14474 85.35263625 166.05175781 99.75610352 C166.04313583 101.79729651 166.0722896 103.8357831 166.10375977 105.87670898 C166.10279297 107.8199707 166.10279297 107.8199707 166.10180664 109.80249023 C166.10365967 110.97473145 166.1055127 112.14697266 166.10742188 113.35473633 C165.60571289 116.40405273 165.60571289 116.40405273 163.88623047 118.79223633 C161.19308049 120.69569165 159.88665197 120.87431954 156.62133789 120.79467773 C155.68676758 120.78178711 154.75219727 120.76889648 153.78930664 120.75561523 C152.8212207 120.72209961 151.85313477 120.68858398 150.85571289 120.65405273 C149.8721582 120.63600586 148.88860352 120.61795898 147.87524414 120.59936523 C145.45107506 120.55229399 143.0288923 120.48656015 140.60571289 120.40405273 C140.45102539 121.73436523 140.45102539 121.73436523 140.29321289 123.09155273 C138.81643134 130.20695476 133.93481694 135.83675247 128.04321289 139.90405273 C119.74086608 145.1444331 111.07588627 145.16808067 101.60571289 144.40405273 C98.23005076 143.53184953 95.54433979 142.25746057 92.60571289 140.40405273 C91.98438477 140.05342773 91.36305664 139.70280273 90.72290039 139.34155273 C85.66908719 136.19112373 82.21268504 131.731724 79.60571289 126.40405273 C79.27571289 124.42405273 78.94571289 122.44405273 78.60571289 120.40405273 C56.82571289 120.40405273 35.04571289 120.40405273 12.60571289 120.40405273 C12.27571289 122.38405273 11.94571289 124.36405273 11.60571289 126.40405273 C7.39029504 134.63415425 1.33339142 140.07768471 -7.18334961 143.53686523 C-15.49161894 145.7807044 -25.87300825 145.77383089 -33.51147461 141.59155273 C-34.4434668 141.00374023 -34.4434668 141.00374023 -35.39428711 140.40405273 C-36.01561523 140.05342773 -36.63694336 139.70280273 -37.27709961 139.34155273 C-42.33091281 136.19112373 -45.78731496 131.731724 -48.39428711 126.40405273 C-49.05834961 123.11889648 -49.05834961 123.11889648 -49.39428711 120.40405273 C-50.31709473 120.43547363 -50.31709473 120.43547363 -51.25854492 120.4675293 C-54.0536252 120.5508229 -56.84844426 120.60275287 -59.64428711 120.65405273 C-60.61237305 120.68756836 -61.58045898 120.72108398 -62.57788086 120.75561523 C-63.97973633 120.77495117 -63.97973633 120.77495117 -65.40991211 120.79467773 C-66.26875 120.815625 -67.12758789 120.83657227 -68.01245117 120.8581543 C-70.39428711 120.40405273 -70.39428711 120.40405273 -72.67260742 119.08374023 C-75.47587777 114.72062405 -74.96395104 110.21393994 -74.92553711 105.13842773 C-74.92936401 104.03106262 -74.93319092 102.92369751 -74.93713379 101.78277588 C-74.93985552 99.43924044 -74.93247619 97.09567475 -74.91577148 94.75219727 C-74.89444815 91.18102369 -74.91552388 87.61188073 -74.94116211 84.04077148 C-74.93851729 81.76081915 -74.93338914 79.48086808 -74.92553711 77.20092773 C-74.93363403 76.13920349 -74.94173096 75.07747925 -74.95007324 73.98358154 C-74.85491545 66.37962287 -73.57617348 61.03507217 -68.42944336 55.16186523 C-67.7784668 54.62303711 -67.12749023 54.08420898 -66.45678711 53.52905273 C-65.48418945 52.69760742 -65.48418945 52.69760742 -64.49194336 51.84936523 C-59.25340308 48.23994269 -54.73874342 48.14486928 -48.58178711 48.27905273 C-47.39939453 48.29258789 -47.39939453 48.29258789 -46.19311523 48.30639648 C-44.26004045 48.32982769 -42.32712331 48.36569435 -40.39428711 48.40405273 C-40.13260742 47.1265918 -39.87092773 45.84913086 -39.60131836 44.53295898 C-38.44325715 39.33642619 -36.83762318 34.36316704 -35.08178711 29.34155273 C-34.79883789 28.4952832 -34.51588867 27.64901367 -34.22436523 26.77709961 C-31.57698305 19.16367457 -28.20260242 12.49622146 -22.08178711 7.09155273 C-21.3844043 6.45604492 -20.68702148 5.82053711 -19.96850586 5.16577148 C-13.57508503 0.79030442 -7.52816838 -0.04053399 0 0 Z M-13.21850586 21.91967773 C-16.28282666 26.17370695 -17.67129853 31.19845825 -19.20678711 36.15405273 C-19.5180957 37.11182617 -19.8294043 38.06959961 -20.15014648 39.05639648 C-21.77040008 43.6424116 -21.77040008 43.6424116 -22.39428711 48.40405273 C-5.23428711 48.40405273 11.92571289 48.40405273 29.60571289 48.40405273 C29.60571289 37.84405273 29.60571289 27.28405273 29.60571289 16.40405273 C24.67633789 16.34217773 19.74696289 16.28030273 14.66821289 16.21655273 C12.36348999 16.17558472 12.36348999 16.17558472 10.01220703 16.13378906 C-2.55620455 15.97505367 -2.55620455 15.97505367 -13.21850586 21.91967773 Z M45.60571289 16.40405273 C45.60571289 26.96405273 45.60571289 37.52405273 45.60571289 48.40405273 C62.76571289 48.40405273 79.92571289 48.40405273 97.60571289 48.40405273 C94.27125288 32.55651614 94.27125288 32.55651614 85.60571289 19.40405273 C77.82679652 15.29059434 69.06375918 16.06509423 60.54321289 16.21655273 C55.61383789 16.27842773 50.68446289 16.34030273 45.60571289 16.40405273 Z M-56.39428711 67.40405273 C-58.83904455 71.38565251 -58.62612385 75.30854229 -58.58959961 79.89233398 C-58.58676971 80.59553268 -58.58393982 81.29873138 -58.58102417 82.02323914 C-58.56988862 84.25452165 -58.54479708 86.4853929 -58.51928711 88.71655273 C-58.50924871 90.23542712 -58.50012437 91.75430784 -58.49194336 93.27319336 C-58.46997124 96.98361195 -58.43548758 100.69379215 -58.39428711 104.40405273 C-55.42428711 104.40405273 -52.45428711 104.40405273 -49.39428711 104.40405273 C-48.83741211 103.06342773 -48.28053711 101.72280273 -47.70678711 100.34155273 C-43.62982409 91.29268359 -38.95929087 86.04301758 -29.62475586 82.29077148 C-25.92648771 81.2756483 -22.4523551 81.01993925 -18.64428711 81.02905273 C-17.94198975 81.03066406 -17.23969238 81.03227539 -16.51611328 81.03393555 C-8.50049199 81.22173694 -1.09990186 83.53994868 4.60571289 89.40405273 C8.36476987 94.33133794 10.61829861 98.44180988 12.60571289 104.40405273 C18.21571289 104.40405273 23.82571289 104.40405273 29.60571289 104.40405273 C29.60571289 91.20405273 29.60571289 78.00405273 29.60571289 64.40405273 C15.53346527 64.31676796 15.53346527 64.31676796 1.46118164 64.25756836 C-4.27995134 64.23964789 -10.02094053 64.21846733 -15.76196289 64.17773438 C-20.39147898 64.14509389 -25.02084081 64.12718978 -29.6504631 64.11942101 C-31.41507774 64.11388592 -33.17968412 64.1030772 -34.94423294 64.08686256 C-37.41946789 64.06502579 -39.8940687 64.06208839 -42.36938477 64.06347656 C-43.45911591 64.04729782 -43.45911591 64.04729782 -44.57086182 64.03079224 C-49.2411013 64.05905844 -52.43448728 64.9250852 -56.39428711 67.40405273 Z M45.60571289 64.40405273 C45.60571289 77.60405273 45.60571289 90.80405273 45.60571289 104.40405273 C56.49571289 104.40405273 67.38571289 104.40405273 78.60571289 104.40405273 C79.92571289 101.43405273 81.24571289 98.46405273 82.60571289 95.40405273 C87.19985495 87.7471493 92.97312655 83.77357764 101.60571289 81.40405273 C104.24225047 81.16687467 106.72305467 81.02275225 109.35571289 81.02905273 C110.05801025 81.03066406 110.76030762 81.03227539 111.48388672 81.03393555 C119.49950801 81.22173694 126.90009814 83.53994868 132.60571289 89.40405273 C136.19095169 94.10350108 139.12151638 98.61568636 140.60571289 104.40405273 C143.57571289 104.40405273 146.54571289 104.40405273 149.60571289 104.40405273 C150.05236249 92.56783844 148.00773314 82.68263321 140.00805664 73.58764648 C131.76849226 65.81557512 121.1335391 64.2713149 110.20166016 64.29052734 C109.49838089 64.29038132 108.79510162 64.29023529 108.07051086 64.29008484 C105.77101438 64.29077547 103.47160128 64.29852764 101.17211914 64.30639648 C99.56786646 64.30826369 97.9636132 64.30968616 96.35935974 64.3106842 C92.15575562 64.31448558 87.95218655 64.32429533 83.74859619 64.33538818 C78.69491551 64.34746146 73.64122305 64.35201588 68.58753204 64.35784149 C60.92690135 64.36750853 53.26634743 64.38668168 45.60571289 64.40405273 Z M-31.76928711 104.02905273 C-33.97336604 108.60675513 -34.19145101 112.40957684 -33.39428711 117.40405273 C-31.0645978 122.24263822 -28.23287259 125.07436343 -23.39428711 127.40405273 C-18.39981122 128.20121664 -14.5969895 127.98313166 -10.01928711 125.77905273 C-6.43520998 122.53631628 -3.7989347 119.93929377 -3.01147461 115.00561523 C-2.75544792 109.32182279 -3.45801779 105.75466619 -7.39428711 101.40405273 C-11.74490056 97.46778342 -15.31205717 96.76521355 -20.99584961 97.02124023 C-25.92952815 97.80870033 -28.52655066 100.4449756 -31.76928711 104.02905273 Z M96.23071289 104.02905273 C94.02663396 108.60675513 93.80854899 112.40957684 94.60571289 117.40405273 C96.9354022 122.24263822 99.76712741 125.07436343 104.60571289 127.40405273 C109.60018878 128.20121664 113.4030105 127.98313166 117.98071289 125.77905273 C121.56479002 122.53631628 124.2010653 119.93929377 124.98852539 115.00561523 C125.24455208 109.32182279 124.54198221 105.75466619 120.60571289 101.40405273 C116.25509944 97.46778342 112.68794283 96.76521355 107.00415039 97.02124023 C102.07047185 97.80870033 99.47344934 100.4449756 96.23071289 104.02905273 Z "
          fill="#000000" transform="translate(210.394287109375,31.595947265625)"/>
    <path d="M0 0 C1.12795361 -0.00935994 1.12795361 -0.00935994 2.27869415 -0.01890898 C4.80004674 -0.03487215 7.32043701 -0.02222232 9.84179688 -0.00964355 C11.64868738 -0.01506322 13.45557347 -0.022185 15.26245117 -0.03088379 C20.17152718 -0.04913865 25.0802674 -0.04204069 29.98934937 -0.02936745 C35.12311722 -0.01925099 40.25685604 -0.02862936 45.390625 -0.03491211 C54.01242238 -0.04219246 62.63408278 -0.03259062 71.25585938 -0.0135498 C81.22843656 0.00821965 91.20068666 0.00116856 101.17325592 -0.02085543 C109.73046929 -0.03899836 118.2875841 -0.04157316 126.84481049 -0.03110075 C131.95787417 -0.02485974 137.07078404 -0.02404689 142.18383789 -0.0372467 C146.99052263 -0.04878848 151.79678503 -0.04081012 156.60342407 -0.01766968 C158.36910297 -0.01237363 160.13481731 -0.01391164 161.90048218 -0.02272034 C164.30783501 -0.03362444 166.71382798 -0.01997589 169.12109375 0 C169.82264839 -0.00892289 170.52420303 -0.01784577 171.24701691 -0.02703905 C174.49457109 0.02536347 176.31557028 0.33490233 178.99376678 2.22657013 C180.83750162 4.91120413 181.06291474 6.2840668 181.06848145 9.5177002 C181.07976074 10.5271167 181.09104004 11.5365332 181.10266113 12.57653809 C181.09456421 13.67796143 181.08646729 14.77938477 181.078125 15.91418457 C181.08513428 17.07877197 181.09214355 18.24335938 181.09936523 19.4432373 C181.1169912 23.2983779 181.10530528 27.15278631 181.09179688 31.00793457 C181.09449045 33.6830741 181.09836541 36.35819126 181.10339355 39.0333252 C181.11066884 44.64213007 181.10108559 50.2507242 181.08203125 55.85949707 C181.06026245 62.34211364 181.06731392 68.82422699 181.08933687 75.30683136 C181.10749447 80.87470046 181.11004753 86.44241816 181.0995822 92.01030731 C181.0933491 95.33489127 181.09407886 98.65918709 181.10572815 101.98376465 C181.11586435 105.69008614 181.10043172 109.39543564 181.078125 113.10168457 C181.08622192 114.20310791 181.09431885 115.30453125 181.10266113 116.43933105 C181.09138184 117.44874756 181.08010254 118.45816406 181.06848145 119.49816895 C181.06697334 120.37420776 181.06546524 121.25024658 181.06391144 122.15283203 C180.3590061 125.45088771 179.3099719 126.56595654 176.56054688 128.50793457 C173.94027455 128.9011101 171.73919684 129.0491681 169.12109375 129.01586914 C168.36912468 129.0221091 167.61715561 129.02834907 166.8423996 129.03477812 C164.32104701 129.05074129 161.80065674 129.03809146 159.27929688 129.0255127 C157.47240637 129.03093236 155.66552028 129.03805414 153.85864258 129.04675293 C148.94956657 129.06500779 144.04082635 129.05790983 139.13174438 129.04523659 C133.99797653 129.03512013 128.86423771 129.0444985 123.73046875 129.05078125 C115.10867137 129.0580616 106.48701097 129.04845976 97.86523438 129.02941895 C87.89265719 129.00764949 77.92040709 129.01470058 67.94783783 129.03672457 C59.39062446 129.0548675 50.83350965 129.0574423 42.27628326 129.04696989 C37.16321958 129.04072888 32.05030971 129.03991603 26.93725586 129.05311584 C22.13057112 129.06465762 17.32430872 129.05667926 12.51766968 129.03353882 C10.75199078 129.02824277 8.98627644 129.02978079 7.22061157 129.03858948 C4.81325874 129.04949358 2.40726577 129.03584503 0 129.01586914 C-0.70155464 129.02479203 -1.40310928 129.03371491 -2.12592316 129.04290819 C-5.37347734 128.99050567 -7.19447653 128.68096681 -9.87267303 126.78929901 C-11.71640787 124.10466501 -11.94182099 122.73180234 -11.9473877 119.49816895 C-11.96430664 117.98404419 -11.96430664 117.98404419 -11.98156738 116.43933105 C-11.969422 114.78719604 -11.969422 114.78719604 -11.95703125 113.10168457 C-11.96404053 111.93709717 -11.9710498 110.77250977 -11.97827148 109.57263184 C-11.99589745 105.71749124 -11.98421153 101.86308283 -11.97070312 98.00793457 C-11.9733967 95.33279504 -11.97727166 92.65767788 -11.9822998 89.98254395 C-11.98957509 84.37373907 -11.97999184 78.76514494 -11.9609375 73.15637207 C-11.9391687 66.6737555 -11.94622017 60.19164215 -11.96824312 53.70903778 C-11.98640072 48.14116868 -11.98895378 42.57345098 -11.97848845 37.00556183 C-11.97225535 33.68097787 -11.97298511 30.35668205 -11.9846344 27.03210449 C-11.9947706 23.325783 -11.97933797 19.6204335 -11.95703125 15.91418457 C-11.96512817 14.81276123 -11.9732251 13.71133789 -11.98156738 12.57653809 C-11.97028809 11.56712158 -11.95900879 10.55770508 -11.9473877 9.5177002 C-11.94587959 8.64166138 -11.94437149 7.76562256 -11.94281769 6.86303711 C-10.55427098 0.36641397 -5.77878599 -0.07349884 0 0 Z M4.56054688 16.50793457 C4.56054688 29.70793457 4.56054688 42.90793457 4.56054688 56.50793457 C28.32054687 56.50793457 52.08054687 56.50793457 76.56054688 56.50793457 C76.56054688 43.30793457 76.56054688 30.10793457 76.56054688 16.50793457 C52.80054688 16.50793457 29.04054688 16.50793457 4.56054688 16.50793457 Z M92.56054688 16.50793457 C92.56054688 29.70793457 92.56054688 42.90793457 92.56054688 56.50793457 C116.32054687 56.50793457 140.08054687 56.50793457 164.56054688 56.50793457 C164.56054688 43.30793457 164.56054688 30.10793457 164.56054688 16.50793457 C140.80054688 16.50793457 117.04054688 16.50793457 92.56054688 16.50793457 Z M4.56054688 72.50793457 C4.56054688 85.70793457 4.56054688 98.90793457 4.56054688 112.50793457 C28.32054687 112.50793457 52.08054687 112.50793457 76.56054688 112.50793457 C76.56054688 99.30793457 76.56054688 86.10793457 76.56054688 72.50793457 C52.80054688 72.50793457 29.04054688 72.50793457 4.56054688 72.50793457 Z M92.56054688 72.50793457 C92.56054688 85.70793457 92.56054688 98.90793457 92.56054688 112.50793457 C116.32054687 112.50793457 140.08054687 112.50793457 164.56054688 112.50793457 C164.56054688 99.30793457 164.56054688 86.10793457 164.56054688 72.50793457 C140.80054688 72.50793457 117.04054688 72.50793457 92.56054688 72.50793457 Z "
          fill="#000000" transform="translate(243.439453125,311.4920654296875)"/>
</svg>
